<?xml version="1.0" encoding="utf-8"?>
<!-- Generator: Adobe Illustrator 21.0.0, SVG Export Plug-In . SVG Version: 6.00 Build 0)  -->
<svg version="1.1" id="Layer_1" xmlns="http://www.w3.org/2000/svg" xmlns:xlink="http://www.w3.org/1999/xlink" x="0px" y="0px"
	 viewBox="0 0 512 512" style="enable-background:new 0 0 512 512;" xml:space="preserve">
<g>
	<path d="M256,6.8C114.6,6.7,0,121.2,0,262.6c0,111.8,71.7,206.8,171.5,241.7c13.4,3.4,11.4-6.2,11.4-12.7v-44.3
		c-77.6,9.1-80.8-42.3-86-50.9c-10.5-18-35.4-22.5-28-31.1c17.7-9.1,35.7,2.3,56.6,33.1c15.1,22.4,44.6,18.6,59.5,14.9
		c3.3-13.4,10.2-25.5,19.8-34.8C124.4,364.1,90.9,315,90.9,256.6c0-28.3,9.3-54.3,27.6-75.3c-11.7-34.6,1.1-64.2,2.8-68.6
		c33.2-3,67.8,23.8,70.5,25.9c18.9-5.1,40.4-7.8,64.6-7.8c24.3,0,45.9,2.8,64.9,8c6.5-4.9,38.5-27.9,69.4-25.1
		c1.7,4.4,14.1,33.3,3.1,67.5c18.5,21,28,47.3,28,75.7c0,58.5-33.7,107.6-114.4,121.8c14,13.7,21.8,32.5,21.8,52.1V495
		c0.5,5.1,0,10.2,8.6,10.2C439.1,471.1,512,375.4,512,262.6C512,121.2,397.4,6.8,256,6.8L256,6.8z"/>
</g>
</svg>
